<?xml version="1.0" encoding="UTF-8"?>
<svg width="260px" height="24px" viewBox="0 0 260 24" version="1.1" xmlns="http://www.w3.org/2000/svg" xmlns:xlink="http://www.w3.org/1999/xlink">
<style type="text/css">
	.st0{fill:#CC2029;}
	.st1{fill:#03A14A;}
	.st2{fill:#FFFFFF;}
</style>
<g>
	<circle class="st0" cx="10.8" cy="12.1" r="7.9"/>
	<g>
		<path d="M10.8,4.4c-1.2,0-2.4,0.3-3.4,0.7l7.3,13.6c2.3-1.2,3.8-3.8,3.8-6.7C18.5,7.8,15.1,4.4,10.8,4.4z"/>
		<path class="st0" d="M7.5,5.1c-2.6,1.3-4.3,3.9-4.3,7c0,4.3,3.4,7.7,7.7,7.7c1.5,0,2.7-0.4,3.8-0.9L7.5,5.1z"/>
	</g>
	<g>
		<g>
			<path class="st1" d="M7.2,12.8c0.1,0.8,0.5,1.6,1.2,2.1c0.7,0.5,1.6,0.8,2.7,0.8c0.7,0,1.2-0.1,2-0.3c0.5-0.3,0.9-0.5,1.5-0.8
				l1.6,1.6c-0.5,0.7-1.5,1.1-2.3,1.6c-0.9,0.4-1.9,0.5-2.8,0.5c-2,0-3.5-0.5-4.7-1.7c-1.1-1.2-1.7-2.8-1.7-4.8
				c0-1.9,0.5-3.2,1.7-4.6S9.1,5.7,11,5.7c2,0,3.5,0.5,4.7,1.9c1.1,1.2,1.6,3,1.2,5.4H7.2V12.8z M14.4,10.8c0-0.8-0.4-1.6-0.9-2.1
				c-0.8-0.5-1.6-0.8-2.7-0.8S9.2,8.1,8.4,8.6c-0.5,0.5-0.9,1.2-1.2,2.1H14.4z"/>
		</g>
	</g>
</g>
<g>
	<path class="st2" d="M26.1,14h-2.4v3h-1.6V6.6c1.4,0,2.7,0,4,0C30.3,6.6,30.3,14,26.1,14z M23.6,12.2H26c2.1,0,2.1-3.7,0-3.7h-2.4
		V12.2z"/>
	<path class="st2" d="M36.3,15.1h-4.4l-0.7,2h-1.9L33,6.7h1.8l3.8,10.4h-1.8L36.3,15.1z M34,8.8l-1.6,4.4h3.2L34,8.8z"/>
	<path class="st2" d="M46.4,15.8c-0.8,1.1-2,1.6-3.3,1.6c-3.2,0-4.5-2.6-4.5-5.4s1.5-5.5,4.5-5.5c1.2,0,2.2,0.5,3.2,1.6l-1.1,1.3
		c-0.5-0.6-1.4-0.9-2.1-0.9c-2.1,0-3,1.9-3,3.6s0.8,3.5,3,3.5c0.7,0,1.6-0.4,2.1-1.1L46.4,15.8z"/>
	<path class="st2" d="M52.6,9.1c-0.3-0.6-1.1-1.2-2-1.2c-1.2,0-1.8,0.6-1.8,1.4c0,0.9,0.8,1.2,1.9,1.3c1.8,0.3,3.5,0.8,3.5,3.3
		c0,2.3-1.7,3.3-3.6,3.3c-1.8,0-3.1-0.6-3.7-2.5l1.2-0.7c0.4,1.2,1.4,1.7,2.4,1.7s2-0.4,2-1.6c0-0.9-0.8-1.4-2-1.6
		c-1.8-0.2-3.4-0.8-3.4-3.2c0-2.1,1.7-3.1,3.3-3.1c1.4,0,2.7,0.4,3.4,2.1L52.6,9.1z"/>
	<path class="st2" d="M62.2,17.1h-1.7L57,6.7h1.8l2.6,8.1L64,6.7h1.8L62.2,17.1z"/>
	<path class="st2" d="M66.7,17V6.6h1.6V17H66.7z"/>
	<path class="st2" d="M76.1,17h-6.4c0-3.5,0-7,0-10.4h6.4v1.9h-4.7v2.4H76v1.8h-4.6V15h4.9v2H76.1z"/>
	<path class="st2" d="M86.6,17h-1.4l-1.1-3.3l-0.9-3.3l-0.8,3.3L81.3,17H80L76.8,6.6h1.8l2,7.5l2.1-7.5h1.1l2.1,7.5l2-7.5h1.8
		L86.6,17z"/>
	<path class="st2" d="M96.9,17h-6.4c0-3.5,0-7,0-10.4h6.4v1.9H92v2.4h4.6v1.8H92V15h4.9V17z"/>
	<path class="st2" d="M105.7,17h-1.9l-2.5-3.5h-1.6V17h-1.6V6.6c1.4,0,2.7,0,4.1,0c2,0,3.1,1.7,3.1,3.5c0,1.5-0.5,2.8-2.2,3.3
		L105.7,17L105.7,17z M99.7,8.5v3.4h2.4c1.1,0,1.5-0.8,1.5-1.7c0-0.8-0.4-1.7-1.5-1.7H99.7z"/>
	<path class="st2" d="M112.7,18.3h-1.5V5.9h1.5V18.3z"/>
	<path class="st2" d="M123.3,17h-6.4c0-3.5,0-7,0-10.4h6.4v1.9h-4.9v2.4h4.6v1.8h-4.6V15h4.9V17z"/>
	<path class="st2" d="M124.3,11.3h4.5V13h-4.5V11.3z"/>
	<path class="st2" d="M137.3,9.5l-2.7,4.5h-0.3l-2.7-4.5v7.6H130V6.7h1.9l2.6,4.4l2.6-4.4h1.9v10.4h-1.6L137.3,9.5L137.3,9.5z"/>
	<path class="st2" d="M146.7,17h-6.4c0-3.5,0-7,0-10.4h6.4v1.9H142v2.4h4.6v1.8H142V15h4.9v2H146.7z"/>
	<path class="st2" d="M155.5,11.8c0,2.6-1.3,5.3-4.3,5.3c-1.1,0-2.3,0-3.4,0V6.6c1.1,0,2.3,0,3.4,0C154.1,6.6,155.4,9.2,155.5,11.8z
		 M149.4,15.1h1.8c1.9,0,2.7-1.7,2.6-3.4c0-1.6-0.8-3.3-2.6-3.3h-1.8V15.1z"/>
	<path class="st2" d="M156.5,17V6.6h1.6V17H156.5z"/>
	<path class="st2" d="M167.1,15.8c-0.8,1.1-2,1.6-3.3,1.6c-3.2,0-4.5-2.6-4.5-5.4s1.5-5.5,4.5-5.5c1.2,0,2.2,0.5,3.2,1.6l-1.1,1.3
		c-0.5-0.6-1.4-0.9-2.1-0.9c-2.1,0-3,1.9-3,3.6s0.8,3.5,3,3.5c0.7,0,1.6-0.4,2.1-1.1L167.1,15.8z"/>
	<path class="st2" d="M173.6,15.1h-4.4l-0.7,2h-1.8l3.8-10.4h1.8l3.8,10.4h-1.8L173.6,15.1z M171.3,8.8l-1.6,4.4h3.2L171.3,8.8z"/>
	<path class="st2" d="M178.4,6.6v8.6h4.4V17h-6V6.6H178.4z"/>
	<path class="st2" d="M191.4,9.1c-0.3-0.6-1.1-1.2-2-1.2c-1.2,0-1.8,0.6-1.8,1.4c0,0.9,0.8,1.2,1.9,1.3c1.8,0.3,3.5,0.8,3.5,3.3
		c0,2.3-1.7,3.3-3.6,3.3c-1.8,0-3.1-0.6-3.7-2.5l1.4-0.8c0.4,1.2,1.4,1.7,2.4,1.7s2-0.4,2-1.6c0-0.9-0.8-1.4-2-1.6
		c-1.8-0.2-3.4-0.8-3.4-3.2c0-2.1,1.7-3.1,3.3-3.1c1.4,0,2.7,0.4,3.4,2.1L191.4,9.1z"/>
	<path class="st2" d="M202.6,11.9c0,2.7-1.4,5.4-4.4,5.4c-3.1,0-4.4-2.6-4.4-5.4s1.5-5.5,4.4-5.5C201.2,6.4,202.6,9.2,202.6,11.9z
		 M195.4,12c0,1.7,0.8,3.6,2.8,3.6s2.7-1.9,2.8-3.6c0-1.8-0.7-3.7-2.8-3.7C196.1,8.3,195.4,10.2,195.4,12z"/>
	<path class="st2" d="M205.3,6.6v8.6h4.4V17h-6V6.6H205.3z"/>
	<path class="st2" d="M217.7,6.7v5.9c0,3.1-1.6,4.6-3.7,4.6c-2.1,0-3.8-1.5-3.8-4.6V6.7h1.6v5.9c0,1.9,0.8,2.8,2.2,2.8
		s2.1-1.1,2.1-2.8V6.7H217.7z"/>
	<path class="st2" d="M221.4,8.4h-2.7V6.6c2.4,0,4.5,0,7.1,0v1.8H223V17h-1.6V8.4L221.4,8.4z"/>
	<path class="st2" d="M226.6,17V6.6h1.6V17H226.6z"/>
	<path class="st2" d="M238.3,11.9c0,2.7-1.4,5.4-4.4,5.4c-3.1,0-4.4-2.6-4.4-5.4s1.5-5.5,4.4-5.5C236.8,6.4,238.3,9.2,238.3,11.9z
		 M231,12c0,1.7,0.8,3.6,2.8,3.6s2.7-1.9,2.8-3.6c0-1.8-0.7-3.7-2.8-3.7S231,10.2,231,12z"/>
	<path class="st2" d="M244.9,6.6h1.6V17h-1.1l0,0l-4.5-7.1V17h-1.6V6.6h1.3l4.2,6.4V6.6H244.9z"/>
	<path class="st2" d="M253.4,9.1c-0.3-0.6-1.1-1.2-2-1.2c-1.2,0-1.8,0.6-1.8,1.4c0,0.9,0.8,1.2,1.9,1.3c1.8,0.3,3.5,0.8,3.5,3.3
		c0,2.3-1.7,3.3-3.6,3.3c-1.8,0-3.1-0.6-3.7-2.5l1.4-0.8c0.4,1.2,1.4,1.7,2.4,1.7c1.1,0,2-0.4,2-1.6c0-0.9-0.8-1.4-2-1.6
		c-1.8-0.2-3.4-0.8-3.4-3.2c0-2.1,1.7-3.1,3.3-3.1c1.4,0,2.7,0.4,3.4,2.1L253.4,9.1z"/>
</g>
</svg>
