<?xml version="1.0" encoding="utf-8"?>
<!-- Generator: Adobe Illustrator 25.2.0, SVG Export Plug-In . SVG Version: 6.00 Build 0)  -->
<svg version="1.1" id="Layer_1" xmlns="http://www.w3.org/2000/svg" xmlns:xlink="http://www.w3.org/1999/xlink" x="0px" y="0px"
	 viewBox="0 0 235.7 12" style="enable-background:new 0 0 235.7 12;" xml:space="preserve">
<style type="text/css">
	.st0{fill:#CC2029;}
	.st1{fill:#03A14A;}
	.st2{fill:#FFFFFF;}
</style>
<g>
	<circle class="st0" cx="6" cy="6.2" r="5.6"/>
	<g>
		<path d="M6,0.8C5.1,0.8,4.3,1,3.6,1.3l5.1,9.6c1.6-0.9,2.7-2.7,2.7-4.7C11.4,3.2,9,0.8,6,0.8z"/>
		<path class="st0" d="M3.6,1.3c-1.8,0.9-3,2.7-3,4.9c0,3,2.4,5.4,5.4,5.4c1,0,1.9-0.3,2.7-0.7L3.6,1.3z"/>
	</g>
	<g>
		<g>
			<path class="st1" d="M3.4,6.7c0.1,0.6,0.4,1.1,0.9,1.5c0.5,0.4,1.1,0.6,1.9,0.6c0.5,0,0.9-0.1,1.4-0.2C8,8.4,8.3,8.2,8.6,8
				l1.1,1.1c-0.4,0.5-1,0.8-1.6,1.1c-0.7,0.3-1.3,0.4-2,0.4c-1.4,0-2.5-0.4-3.3-1.2C2,8.5,1.6,7.4,1.6,6c0-1.3,0.4-2.3,1.2-3.2
				S4.7,1.7,6,1.7c1.4,0,2.5,0.4,3.3,1.3s1.1,2.1,0.9,3.8H3.4V6.7z M8.5,5.3c0-0.6-0.3-1.1-0.7-1.5C7.3,3.4,6.7,3.2,6,3.2
				S4.8,3.4,4.3,3.7C3.9,4.1,3.6,4.6,3.4,5.3H8.5z"/>
		</g>
	</g>
</g>
<g>
	<path class="st2" d="M17.6,8.1h-2.3V11h-1.5V1.1c1.3,0,2.6,0,3.8,0C21.6,1.1,21.6,8.1,17.6,8.1z M15.3,6.4h2.3c2,0,2-3.5,0-3.5
		h-2.3V6.4z"/>
	<path class="st2" d="M27.3,9.2h-4.2l-0.7,1.9h-1.8l3.6-9.9h1.7l3.6,9.9h-1.7L27.3,9.2z M25.1,3.2l-1.5,4.2h3L25.1,3.2z"/>
	<path class="st2" d="M36.9,9.8c-0.8,1-1.9,1.5-3.1,1.5c-3,0-4.3-2.5-4.3-5.1S30.9,1,33.8,1c1.1,0,2.1,0.5,3,1.5l-1,1.2
		c-0.5-0.6-1.3-0.9-2-0.9c-2,0-2.8,1.8-2.8,3.4s0.8,3.3,2.8,3.3c0.7,0,1.5-0.4,2-1L36.9,9.8z"/>
	<path class="st2" d="M42.8,3.5c-0.3-0.6-1-1.1-1.9-1.1c-1.1,0-1.7,0.6-1.7,1.3c0,0.9,0.8,1.1,1.8,1.2c1.7,0.3,3.3,0.8,3.3,3.1
		c0,2.2-1.6,3.1-3.4,3.1c-1.7,0-2.9-0.6-3.5-2.4L38.5,8c0.4,1.1,1.3,1.6,2.3,1.6s1.9-0.4,1.9-1.5c0-0.9-0.8-1.3-1.9-1.5
		c-1.7-0.2-3.2-0.8-3.2-3c0-2,1.6-2.9,3.1-2.9c1.3,0,2.6,0.4,3.2,2L42.8,3.5z"/>
	<path class="st2" d="M51.9,11.1h-1.6l-3.4-9.9h1.7l2.5,7.7l2.5-7.7h1.7L51.9,11.1z"/>
	<path class="st2" d="M56.1,11V1.1h1.5V11H56.1z"/>
	<path class="st2" d="M65,11h-6.1c0-3.3,0-6.6,0-9.9H65v1.8h-4.5v2.3h4.4v1.7h-4.4v2.2h4.6L65,11L65,11z"/>
	<path class="st2" d="M75,11h-1.3l-1-3.1l-0.9-3.1L71,7.9L70,11h-1.3l-3-9.9h1.7l1.9,7.1l2-7.1h1l2,7.1l1.9-7.1h1.7L75,11z"/>
	<path class="st2" d="M84.8,11h-6.1c0-3.3,0-6.6,0-9.9h6.1v1.8h-4.6v2.3h4.4v1.7h-4.4v2.2h4.6V11z"/>
	<path class="st2" d="M93.1,11h-1.8l-2.4-3.3h-1.5V11h-1.5V1.1c1.3,0,2.6,0,3.9,0c1.9,0,2.9,1.6,2.9,3.3c0,1.4-0.5,2.7-2.1,3.1
		L93.1,11L93.1,11z M87.4,2.9v3.2h2.3c1,0,1.4-0.8,1.4-1.6s-0.4-1.6-1.4-1.6C89.7,2.9,87.4,2.9,87.4,2.9z"/>
	<path class="st2" d="M99.7,12.2h-1.4V0.4h1.4V12.2z"/>
	<path class="st2" d="M109.8,11h-6.1c0-3.3,0-6.6,0-9.9h6.1v1.8h-4.6v2.3h4.4v1.7h-4.4v2.2h4.6V11z"/>
	<path class="st2" d="M110.7,5.6h4.3v1.6h-4.3V5.6z"/>
	<path class="st2" d="M123.1,3.9l-2.6,4.3h-0.3l-2.6-4.3v7.2h-1.5V1.2h1.8l2.5,4.2l2.5-4.2h1.8v9.9h-1.5V3.9H123.1z"/>
	<path class="st2" d="M132,11h-6.1c0-3.3,0-6.6,0-9.9h6.1v1.8h-4.5v2.3h4.4v1.7h-4.4v2.2h4.6V11H132z"/>
	<path class="st2" d="M140.3,6c0,2.5-1.2,5-4.1,5c-1,0-2.2,0-3.2,0V1.1c1,0,2.2,0,3.2,0C139,1.1,140.2,3.6,140.3,6z M134.5,9.2h1.7
		c1.8,0,2.6-1.6,2.5-3.2c0-1.5-0.8-3.1-2.5-3.1h-1.7V9.2z"/>
	<path class="st2" d="M141.3,11V1.1h1.5V11H141.3z"/>
	<path class="st2" d="M151.3,9.8c-0.8,1-1.9,1.5-3.1,1.5c-3,0-4.3-2.5-4.3-5.1s1.4-5.2,4.3-5.2c1.1,0,2.1,0.5,3,1.5l-1,1.2
		c-0.5-0.6-1.3-0.9-2-0.9c-2,0-2.8,1.8-2.8,3.4s0.8,3.3,2.8,3.3c0.7,0,1.5-0.4,2-1L151.3,9.8z"/>
	<path class="st2" d="M157.5,9.2h-4.2l-0.7,1.9h-1.7l3.6-9.9h1.7l3.6,9.9h-1.7L157.5,9.2z M155.3,3.2l-1.5,4.2h3L155.3,3.2z"/>
	<path class="st2" d="M162,1.1v8.2h4.2V11h-5.7V1.1H162z"/>
	<path class="st2" d="M174.4,3.5c-0.3-0.6-1-1.1-1.9-1.1c-1.1,0-1.7,0.6-1.7,1.3c0,0.9,0.8,1.1,1.8,1.2c1.7,0.3,3.3,0.8,3.3,3.1
		c0,2.2-1.6,3.1-3.4,3.1c-1.7,0-2.9-0.6-3.5-2.4l1.3-0.8c0.4,1.1,1.3,1.6,2.3,1.6s1.9-0.4,1.9-1.5c0-0.9-0.8-1.3-1.9-1.5
		c-1.7-0.2-3.2-0.8-3.2-3c0-2,1.6-2.9,3.1-2.9c1.3,0,2.6,0.4,3.2,2L174.4,3.5z"/>
	<path class="st2" d="M185,6.1c0,2.6-1.3,5.1-4.2,5.1s-4.2-2.5-4.2-5.1s1.4-5.2,4.2-5.2S185,3.6,185,6.1z M178.1,6.2
		c0,1.6,0.8,3.4,2.7,3.4s2.6-1.8,2.7-3.4c0-1.7-0.7-3.5-2.7-3.5S178.1,4.5,178.1,6.2z"/>
	<path class="st2" d="M187.5,1.1v8.2h4.2V11H186V1.1H187.5z"/>
	<path class="st2" d="M199.3,1.2v5.6c0,2.9-1.5,4.4-3.5,4.4s-3.6-1.4-3.6-4.4V1.2h1.5v5.6c0,1.8,0.8,2.7,2.1,2.7s2-1,2-2.7V1.2
		H199.3z"/>
	<path class="st2" d="M202.8,2.8h-2.6V1.1c2.3,0,4.3,0,6.7,0v1.7h-2.6V11h-1.5L202.8,2.8L202.8,2.8z"/>
	<path class="st2" d="M207.7,11V1.1h1.5V11H207.7z"/>
	<path class="st2" d="M218.8,6.1c0,2.6-1.3,5.1-4.2,5.1s-4.2-2.5-4.2-5.1s1.4-5.2,4.2-5.2C217.4,0.9,218.8,3.6,218.8,6.1z
		 M211.9,6.2c0,1.6,0.8,3.4,2.7,3.4s2.6-1.8,2.7-3.4c0-1.7-0.7-3.5-2.7-3.5S211.9,4.5,211.9,6.2z"/>
	<path class="st2" d="M225.1,1.1h1.5V11h-1l0,0l-4.3-6.7V11h-1.5V1.1h1.2l4,6.1V1.1H225.1z"/>
	<path class="st2" d="M233.1,3.5c-0.3-0.6-1-1.1-1.9-1.1c-1.1,0-1.7,0.6-1.7,1.3c0,0.9,0.8,1.1,1.8,1.2c1.7,0.3,3.3,0.8,3.3,3.1
		c0,2.2-1.6,3.1-3.4,3.1c-1.7,0-2.9-0.6-3.5-2.4l1.3-0.8c0.4,1.1,1.3,1.6,2.3,1.6s1.9-0.4,1.9-1.5c0-0.9-0.8-1.3-1.9-1.5
		c-1.7-0.2-3.2-0.8-3.2-3c0-2,1.6-2.9,3.1-2.9c1.3,0,2.6,0.4,3.2,2L233.1,3.5z"/>
</g>
</svg>
