<?xml version="1.0" encoding="utf-8"?>
<!-- Generator: Adobe Illustrator 25.2.0, SVG Export Plug-In . SVG Version: 6.00 Build 0)  -->
<svg width="47" height="47" viewBox="0 0 47 47" xmlns="http://www.w3.org/2000/svg">
<style type="text/css">
	.st0{fill:#CC2029;}
	.st1{fill:#03A14A;}
</style>
<g>
	<circle class="st0" cx="23.5" cy="23.3" r="22.2"/>
	<g>
		<path d="M23.5,1.7c-3.4,0-6.7,0.8-9.5,2l20.5,38.1c6.4-3.4,10.7-10.7,10.7-18.8C45.1,11.2,35.6,1.7,23.5,1.7z"/>
		<path class="st0" d="M14.2,3.7C7,7.3,2.2,14.6,2.2,23.3c0,12.1,9.5,21.6,21.6,21.6c4.2,0,7.6-1.1,10.7-2.5L14.2,3.7z"/>
	</g>
	<g>
		<g>
			<path class="st1" d="M13.4,25.3c0.3,2.2,1.4,4.5,3.4,5.9c2,1.4,4.5,2.2,7.6,2.2c2,0,3.4-0.3,5.6-0.8c1.4-0.8,2.5-1.4,4.2-2.2
				l4.5,4.5c-1.4,2-4.2,3.1-6.4,4.5c-2.5,1.1-5.3,1.4-7.9,1.4c-5.6,0-9.8-1.4-13.2-4.8c-3.1-3.4-4.8-7.9-4.8-13.5
				c0-5.3,1.4-9,4.8-12.9s7.6-4.2,12.9-4.2c5.6,0,9.8,1.4,13.2,5.3c3.1,3.4,4.5,8.4,3.4,15.1H13.4V25.3z M33.6,19.7
				c0-2.2-1.1-4.5-2.5-5.9c-2.2-1.4-4.5-2.2-7.6-2.2s-4.5,0.6-6.7,2c-1.4,1.4-2.5,3.4-3.4,5.9h20.2V19.7z"/>
		</g>
	</g>
</g>
</svg>
