<?xml version="1.0" encoding="utf-8"?>
<!-- Generator: Adobe Illustrator 25.2.0, SVG Export Plug-In . SVG Version: 6.00 Build 0)  -->
<svg version="1.1" id="Layer_1" xmlns="http://www.w3.org/2000/svg" xmlns:xlink="http://www.w3.org/1999/xlink" x="0px" y="0px"
	 viewBox="0 0 250 24" style="enable-background:new 0 0 250 24;" xml:space="preserve">
<style type="text/css">
	.st0{fill:#CC2029;}
	.st1{fill:#03A14A;}
	.st2{fill:#FFFFFF;}
</style>
<g>
	<circle class="st0" cx="6.8" cy="12" r="5.9"/>
	<g>
		<path d="M6.8,6.3C5.9,6.3,5,6.5,4.3,6.8l5.4,10.1c1.7-0.9,2.8-2.8,2.8-5C12.5,8.8,10,6.3,6.8,6.3z"/>
		<path class="st0" d="M4.3,6.8C2.4,7.8,1.1,9.7,1.1,12c0,3.2,2.5,5.7,5.7,5.7c1.1,0,2-0.3,2.8-0.7L4.3,6.8z"/>
	</g>
	<g>
		<g>
			<path class="st1" d="M4.1,12.5c0.1,0.6,0.4,1.2,0.9,1.6c0.5,0.4,1.2,0.6,2,0.6c0.5,0,0.9-0.1,1.5-0.2c0.4-0.2,0.7-0.4,1.1-0.6
				l1.2,1.2c-0.4,0.5-1.1,0.8-1.7,1.2c-0.7,0.3-1.4,0.4-2.1,0.4c-1.5,0-2.6-0.4-3.5-1.3c-0.8-0.9-1.3-2.1-1.3-3.6
				c0-1.4,0.4-2.4,1.3-3.4s2-1.2,3.4-1.2c1.5,0,2.6,0.4,3.5,1.4c0.8,0.9,1.2,2.2,0.9,4H4.1V12.5z M9.5,11c0-0.6-0.3-1.2-0.7-1.6
				C8.2,9,7.6,8.8,6.8,8.8S5.6,9,5,9.4C4.6,9.8,4.3,10.3,4.1,11H9.5z"/>
		</g>
	</g>
</g>
<g>
	<path class="st2" d="M19.1,14h-2.4V17h-1.6V6.6c1.4,0,2.7,0,4,0C23.3,6.6,23.3,14,19.1,14z M16.6,12.2h2.4c2.1,0,2.1-3.7,0-3.7
		h-2.4V12.2z"/>
	<path class="st2" d="M29.3,15.1h-4.4l-0.7,2h-1.9L26,6.7h1.8l3.8,10.4h-1.8L29.3,15.1z M27,8.8l-1.6,4.4h3.2L27,8.8z"/>
	<path class="st2" d="M39.4,15.8c-0.8,1.1-2,1.6-3.3,1.6c-3.2,0-4.5-2.6-4.5-5.4s1.5-5.5,4.5-5.5c1.2,0,2.2,0.5,3.2,1.6l-1.1,1.3
		c-0.5-0.6-1.4-0.9-2.1-0.9c-2.1,0-3,1.9-3,3.6s0.8,3.5,3,3.5c0.7,0,1.6-0.4,2.1-1.1L39.4,15.8z"/>
	<path class="st2" d="M45.6,9.1c-0.3-0.6-1.1-1.2-2-1.2c-1.2,0-1.8,0.6-1.8,1.4c0,0.9,0.8,1.2,1.9,1.3c1.8,0.3,3.5,0.8,3.5,3.3
		c0,2.3-1.7,3.3-3.6,3.3c-1.8,0-3.1-0.6-3.7-2.5l1.2-0.7c0.4,1.2,1.4,1.7,2.4,1.7s2-0.4,2-1.6c0-0.9-0.8-1.4-2-1.6
		c-1.8-0.2-3.4-0.8-3.4-3.2c0-2.1,1.7-3.1,3.3-3.1c1.4,0,2.7,0.4,3.4,2.1L45.6,9.1z"/>
	<path class="st2" d="M55.2,17.1h-1.7L50,6.7h1.8l2.6,8.1L57,6.7h1.8L55.2,17.1z"/>
	<path class="st2" d="M59.7,17V6.6h1.6V17H59.7z"/>
	<path class="st2" d="M69.1,17h-6.4c0-3.5,0-7,0-10.4h6.4v1.9h-4.7v2.4H69v1.8h-4.6V15h4.9v2H69.1z"/>
	<path class="st2" d="M79.6,17h-1.4l-1.1-3.3l-0.9-3.3l-0.8,3.3L74.3,17H73L69.8,6.6h1.8l2,7.5l2.1-7.5h1.1l2.1,7.5l2-7.5h1.8
		L79.6,17z"/>
	<path class="st2" d="M89.9,17h-6.4c0-3.5,0-7,0-10.4h6.4v1.9h-4.9v2.4h4.6v1.8h-4.6V15h4.9V17z"/>
	<path class="st2" d="M98.7,17h-1.9l-2.5-3.5h-1.6V17h-1.6V6.6c1.4,0,2.7,0,4.1,0c2,0,3.1,1.7,3.1,3.5c0,1.5-0.5,2.8-2.2,3.3
		l2.6,3.6V17z M92.7,8.5v3.4h2.4c1.1,0,1.5-0.8,1.5-1.7c0-0.8-0.4-1.7-1.5-1.7C95.1,8.5,92.7,8.5,92.7,8.5z"/>
	<path class="st2" d="M105.7,18.3h-1.5V5.9h1.5V18.3z"/>
	<path class="st2" d="M116.3,17h-6.4c0-3.5,0-7,0-10.4h6.4v1.9h-4.9v2.4h4.6v1.8h-4.6V15h4.9V17z"/>
	<path class="st2" d="M117.3,11.3h4.5V13h-4.5V11.3z"/>
	<path class="st2" d="M130.3,9.5l-2.7,4.5h-0.3l-2.7-4.5v7.6H123V6.7h1.9l2.6,4.4l2.6-4.4h1.9v10.4h-1.6V9.5H130.3z"/>
	<path class="st2" d="M139.7,17h-6.4c0-3.5,0-7,0-10.4h6.4v1.9H135v2.4h4.6v1.8H135V15h4.9v2H139.7z"/>
	<path class="st2" d="M148.5,11.8c0,2.6-1.3,5.3-4.3,5.3c-1.1,0-2.3,0-3.4,0V6.6c1.1,0,2.3,0,3.4,0C147.1,6.6,148.4,9.2,148.5,11.8z
		 M142.4,15.1h1.8c1.9,0,2.7-1.7,2.6-3.4c0-1.6-0.8-3.3-2.6-3.3h-1.8V15.1z"/>
	<path class="st2" d="M149.5,17V6.6h1.6V17H149.5z"/>
	<path class="st2" d="M160.1,15.8c-0.8,1.1-2,1.6-3.3,1.6c-3.2,0-4.5-2.6-4.5-5.4s1.5-5.5,4.5-5.5c1.2,0,2.2,0.5,3.2,1.6l-1.1,1.3
		c-0.5-0.6-1.4-0.9-2.1-0.9c-2.1,0-3,1.9-3,3.6s0.8,3.5,3,3.5c0.7,0,1.6-0.4,2.1-1.1L160.1,15.8z"/>
	<path class="st2" d="M166.6,15.1h-4.4l-0.7,2h-1.8l3.8-10.4h1.8l3.8,10.4h-1.8L166.6,15.1z M164.3,8.8l-1.6,4.4h3.2L164.3,8.8z"/>
	<path class="st2" d="M171.4,6.6v8.6h4.4V17h-6V6.6H171.4z"/>
	<path class="st2" d="M184.4,9.1c-0.3-0.6-1.1-1.2-2-1.2c-1.2,0-1.8,0.6-1.8,1.4c0,0.9,0.8,1.2,1.9,1.3c1.8,0.3,3.5,0.8,3.5,3.3
		c0,2.3-1.7,3.3-3.6,3.3c-1.8,0-3.1-0.6-3.7-2.5l1.4-0.8c0.4,1.2,1.4,1.7,2.4,1.7s2-0.4,2-1.6c0-0.9-0.8-1.4-2-1.6
		c-1.8-0.2-3.4-0.8-3.4-3.2c0-2.1,1.7-3.1,3.3-3.1c1.4,0,2.7,0.4,3.4,2.1L184.4,9.1z"/>
	<path class="st2" d="M195.6,11.9c0,2.7-1.4,5.4-4.4,5.4c-3.1,0-4.4-2.6-4.4-5.4s1.5-5.5,4.4-5.5C194.2,6.4,195.6,9.2,195.6,11.9z
		 M188.4,12c0,1.7,0.8,3.6,2.8,3.6c2,0,2.7-1.9,2.8-3.6c0-1.8-0.7-3.7-2.8-3.7C189.1,8.3,188.4,10.2,188.4,12z"/>
	<path class="st2" d="M198.3,6.6v8.6h4.4V17h-6V6.6H198.3z"/>
	<path class="st2" d="M210.7,6.7v5.9c0,3.1-1.6,4.6-3.7,4.6c-2.1,0-3.8-1.5-3.8-4.6V6.7h1.6v5.9c0,1.9,0.8,2.8,2.2,2.8
		c1.4,0,2.1-1.1,2.1-2.8V6.7H210.7z"/>
	<path class="st2" d="M214.4,8.4h-2.7V6.6c2.4,0,4.5,0,7.1,0v1.8H216V17h-1.6L214.4,8.4L214.4,8.4z"/>
	<path class="st2" d="M219.6,17V6.6h1.6V17H219.6z"/>
	<path class="st2" d="M231.3,11.9c0,2.7-1.4,5.4-4.4,5.4c-3.1,0-4.4-2.6-4.4-5.4s1.5-5.5,4.4-5.5C229.8,6.4,231.3,9.2,231.3,11.9z
		 M224,12c0,1.7,0.8,3.6,2.8,3.6c2,0,2.7-1.9,2.8-3.6c0-1.8-0.7-3.7-2.8-3.7C224.7,8.3,224,10.2,224,12z"/>
	<path class="st2" d="M237.9,6.6h1.6V17h-1.1l0,0l-4.5-7.1V17h-1.6V6.6h1.3l4.2,6.4V6.6H237.9z"/>
	<path class="st2" d="M246.4,9.1c-0.3-0.6-1.1-1.2-2-1.2c-1.2,0-1.8,0.6-1.8,1.4c0,0.9,0.8,1.2,1.9,1.3c1.8,0.3,3.5,0.8,3.5,3.3
		c0,2.3-1.7,3.3-3.6,3.3c-1.8,0-3.1-0.6-3.7-2.5l1.4-0.8c0.4,1.2,1.4,1.7,2.4,1.7c1.1,0,2-0.4,2-1.6c0-0.9-0.8-1.4-2-1.6
		c-1.8-0.2-3.4-0.8-3.4-3.2c0-2.1,1.7-3.1,3.3-3.1c1.4,0,2.7,0.4,3.4,2.1L246.4,9.1z"/>
</g>
</svg>
